<!-- Generator: Adobe Illustrator 19.2.0, SVG Export Plug-In  -->
<svg version="1.1"
	 xmlns="http://www.w3.org/2000/svg" xmlns:xlink="http://www.w3.org/1999/xlink" xmlns:a="http://ns.adobe.com/AdobeSVGViewerExtensions/3.0/"
	 x="0px" y="0px" width="325.56px" height="77.686px" viewBox="0 0 325.56 77.686"
	 style="enable-background:new 0 0 325.56 77.686;" xml:space="preserve">
<style type="text/css">
	.st0{fill:#FFFFFF;}
</style>
<defs>
</defs>
<path class="st0" d="M13.824,40.746l1.413-2.777l0.454,4.045l4.427,3.008h8.832l2.533-1.949l0.543-5.182l1.761,3.409l4.854-3.735
	l-4.064-8.001c-0.37-0.728-1.117-1.187-1.933-1.188L14.536,28.36c-0.828-0.001-1.585,0.47-1.95,1.214L8.78,37.319L13.824,40.746z"/>
<ellipse transform="matrix(1 -0.0038 0.0038 1 -0.0673 0.0905)" class="st0" cx="23.53" cy="17.578" rx="7.954" ry="7.954"/>
<g>
	<g>
		<path class="st0" d="M7.254,40.926c-0.074,0-0.149-0.017-0.22-0.051c-0.248-0.122-0.35-0.421-0.228-0.669l1.323-2.692
			c0.072-0.146,0.211-0.249,0.373-0.273c0.164-0.025,0.325,0.031,0.438,0.149l2.07,2.172c0.19,0.2,0.183,0.517-0.018,0.707
			c-0.199,0.189-0.516,0.182-0.707-0.018L8.71,38.597l-1.007,2.049C7.616,40.823,7.438,40.926,7.254,40.926z"/>
		<path class="st0" d="M6.675,51.74c-0.359,0-0.713-0.057-1.053-0.167C5.36,51.489,5.215,51.207,5.3,50.944
			c0.085-0.262,0.366-0.406,0.629-0.322c1.117,0.36,2.395-0.169,2.931-1.222l0.918-1.806c0.125-0.247,0.425-0.344,0.672-0.219
			c0.246,0.125,0.344,0.426,0.219,0.672l-0.918,1.806C9.16,51.017,7.981,51.74,6.675,51.74z M3.793,49.408
			c-0.231,0-0.438-0.161-0.488-0.396c-0.051-0.239-0.077-0.483-0.077-0.726c0-0.53,0.119-1.041,0.354-1.519l1.86-3.785
			c0.122-0.248,0.419-0.35,0.669-0.228c0.248,0.122,0.35,0.421,0.228,0.669l-1.86,3.785c-0.167,0.339-0.251,0.702-0.251,1.078
			c0,0.172,0.019,0.346,0.055,0.517c0.058,0.27-0.114,0.536-0.384,0.593C3.862,49.405,3.827,49.408,3.793,49.408z"/>
		<path class="st0" d="M11.634,45.549c-0.076,0-0.154-0.018-0.226-0.054c-0.246-0.125-0.344-0.426-0.219-0.672l1.2-2.359
			l-1.823-1.917c-0.19-0.2-0.183-0.517,0.018-0.707c0.2-0.189,0.516-0.182,0.707,0.018l2.067,2.174
			c0.146,0.153,0.179,0.382,0.083,0.571l-1.36,2.674C11.992,45.449,11.817,45.549,11.634,45.549z"/>
	</g>
	<g>
		<path class="st0" d="M31.166,46.602c-0.017,0-0.035-0.001-0.053-0.003c-0.274-0.028-0.474-0.274-0.445-0.549l0.192-1.841
			l-1.479,1.114c-0.22,0.167-0.534,0.122-0.7-0.099c-0.166-0.221-0.122-0.534,0.099-0.7l2.396-1.805
			c0.158-0.121,0.373-0.134,0.547-0.036c0.173,0.098,0.272,0.289,0.251,0.487l-0.312,2.983
			C31.636,46.411,31.419,46.602,31.166,46.602z"/>
		<path class="st0" d="M26.55,45.268c-0.018,0-0.035-0.001-0.053-0.003l-5.129-0.544c-0.274-0.029-0.474-0.275-0.444-0.55
			c0.028-0.275,0.27-0.476,0.55-0.444l5.129,0.544c0.274,0.029,0.474,0.275,0.444,0.55C27.02,45.077,26.802,45.268,26.55,45.268z"/>
		<path class="st0" d="M16.206,47.117c-0.251,0-0.468-0.189-0.497-0.444l-0.334-2.981c-0.017-0.15,0.036-0.301,0.143-0.408
			c0.107-0.107,0.257-0.16,0.407-0.145l2.983,0.316c0.274,0.029,0.474,0.275,0.444,0.55s-0.275,0.471-0.55,0.444l-2.364-0.25
			l0.265,2.363c0.031,0.274-0.167,0.522-0.441,0.553C16.243,47.116,16.225,47.117,16.206,47.117z"/>
		<path class="st0" d="M17.631,77.686c-1.634,0-3.111-0.906-3.854-2.363c-0.125-0.246-0.028-0.547,0.218-0.672
			c0.245-0.126,0.547-0.028,0.672,0.218c0.572,1.121,1.708,1.817,2.964,1.817c0.45,0,0.886-0.088,1.297-0.263
			c0.254-0.109,0.548,0.01,0.656,0.264c0.108,0.254-0.01,0.548-0.264,0.656C18.783,77.571,18.215,77.686,17.631,77.686z
			 M21.123,75.418c-0.068,0-0.137-0.014-0.203-0.043c-0.252-0.112-0.366-0.408-0.254-0.66c0.135-0.303,0.224-0.625,0.263-0.958
			l0.544-4.563c0.033-0.274,0.279-0.471,0.556-0.438c0.274,0.033,0.47,0.282,0.438,0.556l-0.544,4.563
			c-0.052,0.432-0.167,0.851-0.342,1.246C21.497,75.308,21.315,75.418,21.123,75.418z M13.905,72.796
			c-0.019,0-0.038-0.001-0.057-0.003c-0.274-0.031-0.472-0.279-0.441-0.553l0.644-5.706c0.031-0.274,0.276-0.475,0.553-0.441
			c0.274,0.031,0.472,0.279,0.441,0.553l-0.644,5.706C14.373,72.607,14.156,72.796,13.905,72.796z M22.311,66.903
			c-0.02,0-0.04-0.001-0.06-0.003c-0.274-0.033-0.47-0.282-0.438-0.556l0.68-5.702c0.033-0.274,0.277-0.469,0.556-0.438
			c0.274,0.033,0.47,0.282,0.438,0.556l-0.68,5.702C22.777,66.716,22.561,66.903,22.311,66.903z M14.871,64.236
			c-0.019,0-0.038-0.001-0.057-0.003c-0.274-0.031-0.472-0.279-0.441-0.553l0.644-5.706c0.031-0.274,0.275-0.47,0.553-0.441
			c0.274,0.031,0.472,0.279,0.441,0.553l-0.644,5.706C15.339,64.048,15.122,64.236,14.871,64.236z M15.837,55.677
			c-0.019,0-0.038-0.001-0.057-0.003c-0.274-0.031-0.472-0.279-0.441-0.553l0.644-5.707c0.031-0.274,0.274-0.471,0.553-0.441
			c0.274,0.031,0.472,0.279,0.441,0.553l-0.644,5.707C16.304,55.489,16.088,55.677,15.837,55.677z"/>
		<path class="st0" d="M23.334,58.327c-0.02,0-0.04-0.001-0.06-0.003c-0.274-0.033-0.47-0.282-0.438-0.556l0.355-2.979
			c0.03-0.251,0.243-0.44,0.496-0.441c0,0,0,0,0.001,0c0.252,0,0.465,0.188,0.496,0.439l0.367,2.978
			c0.034,0.274-0.161,0.523-0.435,0.557c-0.162,0.021-0.316-0.041-0.421-0.149C23.603,58.269,23.474,58.327,23.334,58.327z"/>
		<path class="st0" d="M29.825,77.667c-0.524,0-1.03-0.091-1.511-0.27c-0.259-0.096-0.391-0.384-0.294-0.643
			s0.383-0.393,0.643-0.294c0.369,0.137,0.757,0.207,1.154,0.207c1.328,0,2.524-0.781,3.055-1.99
			c0.111-0.252,0.406-0.367,0.659-0.257c0.253,0.111,0.368,0.406,0.257,0.659C33.096,76.652,31.542,77.667,29.825,77.667z
			 M26.389,75.533c-0.185,0-0.362-0.103-0.449-0.279c-0.213-0.434-0.352-0.898-0.411-1.381l-0.552-4.482
			c-0.034-0.274,0.161-0.523,0.435-0.557c0.272-0.043,0.523,0.161,0.557,0.435l0.552,4.482c0.046,0.371,0.152,0.728,0.316,1.062
			c0.122,0.248,0.02,0.547-0.228,0.669C26.539,75.517,26.464,75.533,26.389,75.533z M33.521,72.532c-0.25,0-0.466-0.187-0.496-0.442
			l-0.676-5.756c-0.032-0.274,0.164-0.522,0.438-0.555c0.271-0.035,0.522,0.164,0.555,0.438l0.676,5.756
			c0.032,0.274-0.164,0.522-0.438,0.555C33.56,72.531,33.54,72.532,33.521,72.532z M25.118,66.954c-0.249,0-0.464-0.186-0.496-0.439
			l-0.708-5.752c-0.034-0.274,0.161-0.523,0.435-0.557c0.272-0.044,0.523,0.161,0.557,0.435l0.708,5.752
			c0.034,0.274-0.161,0.523-0.435,0.557C25.159,66.953,25.138,66.954,25.118,66.954z M32.507,63.898
			c-0.25,0-0.466-0.187-0.496-0.442l-0.676-5.756c-0.032-0.274,0.164-0.522,0.438-0.555c0.267-0.033,0.522,0.164,0.555,0.438
			l0.676,5.756c0.032,0.274-0.164,0.522-0.438,0.555C32.546,63.897,32.527,63.898,32.507,63.898z M31.493,55.263
			c-0.25,0-0.466-0.187-0.496-0.442l-0.653-5.562c-0.004-0.037-0.004-0.074,0-0.111l0.021-0.194c0.028-0.275,0.272-0.481,0.55-0.444
			c0.274,0.029,0.474,0.275,0.444,0.55l-0.015,0.138l0.647,5.507c0.032,0.274-0.164,0.522-0.438,0.555
			C31.532,55.262,31.513,55.263,31.493,55.263z"/>
	</g>
	<g>
		<path class="st0" d="M40.059,40.856c-0.183,0-0.358-0.1-0.446-0.273l-1.088-2.143l-1.92,1.445c-0.221,0.167-0.535,0.122-0.7-0.099
			c-0.166-0.221-0.122-0.534,0.099-0.7l2.396-1.804c0.118-0.089,0.271-0.121,0.414-0.088c0.144,0.034,0.266,0.129,0.333,0.261
			l1.358,2.675c0.125,0.247,0.027,0.547-0.219,0.672C40.212,40.839,40.135,40.856,40.059,40.856z"/>
		<path class="st0" d="M35.194,44.524c-0.181,0-0.356-0.099-0.445-0.271l-1.376-2.666c-0.112-0.217-0.051-0.482,0.144-0.629
			l2.396-1.805c0.221-0.166,0.534-0.121,0.7,0.099c0.166,0.221,0.122,0.534-0.099,0.7l-2.06,1.551l1.183,2.291
			c0.126,0.246,0.03,0.547-0.215,0.674C35.35,44.506,35.271,44.524,35.194,44.524z"/>
		<path class="st0" d="M40.41,51.103c-1.31,0-2.497-0.722-3.097-1.884l-1.151-2.23c-0.126-0.246-0.03-0.547,0.215-0.674
			c0.244-0.127,0.547-0.031,0.674,0.215l1.151,2.23c0.476,0.922,1.495,1.454,2.525,1.323c0.278-0.032,0.525,0.159,0.56,0.433
			c0.035,0.274-0.159,0.524-0.433,0.56C40.707,51.093,40.558,51.103,40.41,51.103z M43.141,49.306c-0.066,0-0.133-0.013-0.198-0.041
			c-0.253-0.109-0.37-0.403-0.261-0.657c0.135-0.314,0.204-0.646,0.204-0.987c0-0.392-0.091-0.77-0.269-1.122l-1.603-3.156
			c-0.125-0.247-0.027-0.547,0.219-0.672c0.246-0.125,0.547-0.027,0.672,0.219l1.603,3.156c0.247,0.487,0.377,1.032,0.377,1.575
			c0,0.478-0.096,0.944-0.286,1.384C43.519,49.193,43.335,49.306,43.141,49.306z"/>
	</g>
</g>
<g>
	<g>
		<path class="st0" d="M45.995,39.752c-0.848,1.173-1.77,2.325-2.854,3.392c-1.07,1.077-2.224,2.003-3.394,2.86l25.847,25.841
			l6.246-6.252L45.995,39.752z"/>
		<path class="st0" d="M44.244,35.324c5.119-9.027,3.848-20.698-3.855-28.396c-9.239-9.237-24.218-9.237-33.453,0
			c-9.246,9.242-9.246,24.218-0.01,33.461c7.706,7.693,19.372,8.971,28.401,3.856c0.54-0.321,1.063-0.702,1.612-1.062
			c1.194-0.822,2.365-1.723,3.449-2.795c1.068-1.077,1.971-2.241,2.802-3.457C43.539,36.396,43.934,35.875,44.244,35.324z
			 M10.545,36.772c-7.235-7.249-7.235-18.981,0-26.222c7.24-7.238,18.985-7.238,26.225,0c7.233,7.237,7.233,18.973,0,26.222
			C29.53,44.01,17.785,44.005,10.545,36.772z"/>
	</g>
</g>
<g>
	<path class="st0" d="M78.915,28.359h-3.26V9.388h5.935c2.968,0,6.349,0.876,6.349,5.691v0.487c0,4.84-3.381,5.716-6.349,5.716
		h-2.675V28.359z M81.712,18.436c1.265,0,2.919-0.462,2.919-2.967v-0.268c0-2.505-1.654-2.968-2.919-2.968h-2.797v6.202H81.712z"/>
	<path class="st0" d="M89.491,19.36v-0.973c0-6.567,2.262-9.315,7.029-9.315c4.742,0,7.005,2.748,7.005,9.315v0.973
		c0,6.567-2.263,9.315-7.005,9.315C91.753,28.676,89.491,25.928,89.491,19.36z M96.617,25.83c2.651,0,3.576-2.189,3.576-6.47v-0.973
		c0-4.281-0.925-6.47-3.576-6.47h-0.219c-2.651,0-3.575,2.188-3.575,6.47v0.973c0,4.28,0.924,6.47,3.575,6.47H96.617z"/>
	<path class="st0" d="M109.335,28.359h-3.26V9.388h5.935c2.968,0,6.349,0.876,6.349,5.691v0.487c0,3.04-1.362,4.523-3.089,5.204
		l3.089,7.589h-3.526l-2.725-7.077h-2.772V28.359z M112.132,18.436c1.265,0,2.919-0.462,2.919-2.967v-0.268
		c0-2.505-1.654-2.968-2.919-2.968h-2.797v6.202H112.132z"/>
	<path class="st0" d="M127.28,28.359h-3.259V12.233h-4.524V9.388h12.308v2.846h-4.524V28.359z"/>
	<path class="st0" d="M140.924,9.291l4.986,19.068h-3.503l-1.046-4.329h-5.351l-1.046,4.329h-3.527l4.986-19.068H140.924z
		 M136.692,21.185h3.965l-1.971-8.173L136.692,21.185z"/>
	<path class="st0" d="M147.827,28.359V9.388h3.26v16.126h7.32v2.846H147.827z"/>
	<path class="st0" d="M170.711,28.359h-5.595V9.388h5.595c5.326,0,7.783,2.433,7.783,9v0.973
		C178.494,25.928,176.037,28.359,170.711,28.359z M170.516,25.514c3.381,0,4.646-1.873,4.646-6.153v-0.973
		c0-4.281-1.266-6.154-4.646-6.154h-2.14v13.28H170.516z"/>
	<path class="st0" d="M192.33,9.388v2.846h-8.026v5.035h6.81v2.821h-6.81v5.424h8.026v2.846h-11.286V9.388H192.33z"/>
	<path class="st0" d="M203.999,28.359h-4.621V9.388h6.543c3.211,0,6.835,0.73,6.835,5.983v0.486c0,5.254-3.624,5.983-6.835,5.983
		h-1.922V28.359z M206.115,17.853c0.9,0,1.971-0.341,1.971-2.141v-0.194c0-1.8-1.07-2.141-1.971-2.141h-2.116v4.476H206.115z"/>
	<path class="st0" d="M226.373,9.388v3.989h-7.296v3.308h6.08v3.989h-6.08v3.697h7.296v3.988h-11.918V9.388H226.373z"/>
	<path class="st0" d="M233.181,28.359h-4.622V9.388h6.543c3.211,0,6.835,0.73,6.835,5.983v0.486c0,3.09-1.24,4.598-2.919,5.352
		l2.919,7.15h-4.986l-2.48-6.519h-1.289V28.359z M235.296,17.853c0.9,0,1.971-0.341,1.971-2.141v-0.194
		c0-1.8-1.07-2.141-1.971-2.141h-2.115v4.476H235.296z"/>
	<path class="st0" d="M243.636,15.152v-0.268c0-3.526,2.359-5.837,6.932-5.837c4.792,0,6.932,2.043,6.932,6.64v0.511h-4.621
		c0-2.141-0.608-3.162-2.311-3.162h-0.243c-1.338,0-1.994,0.754-1.994,1.728v0.097c0,1.168,0.389,1.752,2.942,2.092
		c4.135,0.56,6.349,1.873,6.349,5.595v0.268c0,3.721-2.408,5.886-7.054,5.886c-4.621,0-7.054-1.922-7.054-6.688v-0.219h4.621
		c0,2.091,0.73,2.918,2.311,2.918h0.244c1.58,0,2.237-0.851,2.237-1.775v-0.097c0-1.095-0.511-1.752-3.064-2.092
		C245.728,20.188,243.636,18.874,243.636,15.152z"/>
	<path class="st0" d="M259.15,19.36v-0.973c0-6.567,2.359-9.34,7.467-9.34s7.467,2.772,7.467,9.34v0.973
		c0,6.567-2.359,9.34-7.467,9.34S259.15,25.928,259.15,19.36z M266.738,24.711c2.188,0,2.65-2.067,2.65-5.351v-0.973
		c0-3.284-0.462-5.352-2.65-5.352h-0.243c-2.189,0-2.651,2.067-2.651,5.352v0.973c0,3.283,0.462,5.351,2.651,5.351H266.738z"/>
	<path class="st0" d="M290.448,28.359h-4.864l-5.229-10.458l0.121,3.647v6.811h-4.378V9.388h4.865l5.229,10.459l-0.121-3.648V9.388
		h4.378V28.359z"/>
	<path class="st0" d="M302.727,9.388l4.524,18.972h-4.938l-0.778-3.843h-3.94l-0.754,3.843h-4.962l4.524-18.972H302.727z
		 M298.398,20.527h2.335l-1.167-5.788L298.398,20.527z"/>
	<path class="st0" d="M308.027,15.152v-0.268c0-3.526,2.359-5.837,6.932-5.837c4.792,0,6.932,2.043,6.932,6.64v0.511h-4.621
		c0-2.141-0.608-3.162-2.311-3.162h-0.243c-1.338,0-1.994,0.754-1.994,1.728v0.097c0,1.168,0.389,1.752,2.942,2.092
		c4.135,0.56,6.349,1.873,6.349,5.595v0.268c0,3.721-2.408,5.886-7.054,5.886c-4.621,0-7.054-1.922-7.054-6.688v-0.219h4.621
		c0,2.091,0.73,2.918,2.311,2.918h0.244c1.58,0,2.237-0.851,2.237-1.775v-0.097c0-1.095-0.511-1.752-3.064-2.092
		C310.118,20.188,308.027,18.874,308.027,15.152z"/>
	<path class="st0" d="M83.771,59.359h-8V34.401h8c7.838,0,10.783,3.2,10.783,11.839v1.28C94.554,56.16,91.61,59.359,83.771,59.359z
		 M83.451,54.112c4.16,0,4.928-2.272,4.928-6.592v-1.28c0-4.319-0.768-6.591-4.928-6.591h-1.6v14.463H83.451z"/>
	<path class="st0" d="M112.889,34.401v5.248h-9.599v4.352h7.999v5.247h-7.999v4.864h9.599v5.247H97.21V34.401H112.889z"/>
	<path class="st0" d="M115.291,41.985v-0.353c0-4.64,3.104-7.68,9.119-7.68c6.304,0,9.119,2.688,9.119,8.735v0.672h-6.079
		c0-2.815-0.8-4.159-3.04-4.159h-0.32c-1.76,0-2.623,0.992-2.623,2.271v0.128c0,1.536,0.512,2.304,3.871,2.752
		c5.439,0.736,8.352,2.464,8.352,7.359v0.353c0,4.896-3.168,7.743-9.279,7.743c-6.079,0-9.279-2.528-9.279-8.8v-0.287h6.079
		c0,2.751,0.96,3.839,3.04,3.839h0.32c2.08,0,2.943-1.119,2.943-2.335v-0.129c0-1.439-0.672-2.304-4.031-2.751
		C118.043,48.608,115.291,46.881,115.291,41.985z"/>
	<path class="st0" d="M148.825,34.401l5.952,24.958h-6.496l-1.023-5.056h-5.184l-0.992,5.056h-6.527l5.951-24.958H148.825z
		 M143.13,49.057h3.072l-1.536-7.616L143.13,49.057z"/>
	<path class="st0" d="M162.746,59.359h-6.08V34.401h8.607c4.224,0,8.991,0.96,8.991,7.871v0.641c0,6.911-4.768,7.871-8.991,7.871
		h-2.527V59.359z M165.529,45.536c1.185,0,2.592-0.447,2.592-2.815v-0.256c0-2.368-1.407-2.815-2.592-2.815h-2.783v5.887H165.529z"
		/>
	<path class="st0" d="M188.73,34.401l5.952,24.958h-6.496l-1.023-5.056h-5.184l-0.992,5.056h-6.527l5.951-24.958H188.73z
		 M183.034,49.057h3.072l-1.536-7.616L183.034,49.057z"/>
	<path class="st0" d="M202.65,59.359h-6.08V34.401h8.607c4.224,0,8.991,0.96,8.991,7.871v0.641c0,4.063-1.632,6.047-3.839,7.039
		l3.839,9.407h-6.56l-3.264-8.575h-1.695V59.359z M205.433,45.536c1.185,0,2.592-0.447,2.592-2.815v-0.256
		c0-2.368-1.407-2.815-2.592-2.815h-2.783v5.887H205.433z"/>
	<path class="st0" d="M232.568,34.401v5.248h-9.599v4.352h7.999v5.247h-7.999v4.864h9.599v5.247H216.89V34.401H232.568z"/>
	<path class="st0" d="M244.568,54.56h0.32c2.144,0,2.88-1.6,2.88-3.839h6.08v0.287c0,6.432-3.168,8.8-9.28,8.8
		c-6.719,0-9.663-3.647-9.663-12.287v-1.28c0-8.639,2.944-12.287,9.663-12.287c6.112,0,9.28,2.368,9.28,8.8v1.248h-6.08
		c0-2.88-0.479-4.8-2.88-4.8h-0.32c-3.039,0-3.487,2.72-3.487,7.039v1.28C241.081,51.84,241.529,54.56,244.568,54.56z"/>
	<path class="st0" d="M262.81,59.359h-6.08V34.401h6.08V59.359z"/>
	<path class="st0" d="M274.169,59.359h-8V34.401h8c7.839,0,10.783,3.2,10.783,11.839v1.28
		C284.952,56.16,282.008,59.359,274.169,59.359z M273.849,54.112c4.16,0,4.928-2.272,4.928-6.592v-1.28
		c0-4.319-0.768-6.591-4.928-6.591h-1.6v14.463H273.849z"/>
	<path class="st0" d="M300.184,34.401l5.952,24.958h-6.496l-1.023-5.056h-5.184l-0.992,5.056h-6.527l5.951-24.958H300.184z
		 M294.488,49.057h3.072l-1.536-7.616L294.488,49.057z"/>
	<path class="st0" d="M307.161,41.985v-0.353c0-4.64,3.104-7.68,9.119-7.68c6.304,0,9.119,2.688,9.119,8.735v0.672h-6.079
		c0-2.815-0.8-4.159-3.04-4.159h-0.32c-1.76,0-2.623,0.992-2.623,2.271v0.128c0,1.536,0.512,2.304,3.871,2.752
		c5.439,0.736,8.352,2.464,8.352,7.359v0.353c0,4.896-3.168,7.743-9.279,7.743c-6.079,0-9.279-2.528-9.279-8.8v-0.287h6.079
		c0,2.751,0.96,3.839,3.04,3.839h0.32c2.08,0,2.943-1.119,2.943-2.335v-0.129c0-1.439-0.672-2.304-4.031-2.751
		C309.913,48.608,307.161,46.881,307.161,41.985z"/>
</g>
</svg>