<!-- Generator: Adobe Illustrator 19.2.0, SVG Export Plug-In  -->
<svg version="1.1"
	 xmlns="http://www.w3.org/2000/svg" xmlns:xlink="http://www.w3.org/1999/xlink" xmlns:a="http://ns.adobe.com/AdobeSVGViewerExtensions/3.0/"
	 x="0px" y="0px" width="113.39px" height="113.346px" viewBox="0 0 113.39 113.346"
	 style="enable-background:new 0 0 113.39 113.346;" xml:space="preserve">
<style type="text/css">
	.st0{fill:#2E3192;}
</style>
<defs>
</defs>
<g>
	<g>
		<path class="st0" d="M73.387,59.807c9.185-15.176,7.122-35.135-5.996-48.249c-15.455-15.411-40.373-15.411-55.832,0
			c-15.412,15.459-15.412,40.473,0,55.885c13.022,13.114,33.024,15.08,48.243,5.996l39.912,39.907l13.676-13.584L73.387,59.807z
			 M19.382,59.62c-11.056-11.104-11.056-29.091,0-40.19c11.099-11.147,29.134-11.147,40.234,0c11.104,11.099,11.104,29.086,0,40.142
			v0.048l0,0C48.468,70.719,30.481,70.719,19.382,59.62z"/>
		<polygon class="st0" points="59.615,59.62 59.615,59.572 59.615,59.62 		"/>
	</g>
	<g>
		<path class="st0" d="M26.388,32.643c0.05-7.263,6.184-10.501,13.103-10.501s13.299,2.993,13.151,10.354
			c0,7.115-6.526,7.852-9.373,9.765c-1.324,0.883-1.864,2.257-1.864,4.564v0.245h-6.478v-0.294c0.049-6.723,2.797-8.244,5.398-9.618
			c2.601-1.374,5.594-1.767,5.594-4.711c0-3.779-3.484-4.662-6.526-4.662c-3.141,0-6.38,1.767-6.429,4.858H26.388z M42.042,53.008
			c0,5.153-7.852,5.153-7.852,0C34.191,47.807,42.042,47.807,42.042,53.008z"/>
	</g>
</g>
</svg>