<!-- Generator: Adobe Illustrator 19.2.0, SVG Export Plug-In  -->
<svg version="1.1"
	 xmlns="http://www.w3.org/2000/svg" xmlns:xlink="http://www.w3.org/1999/xlink" xmlns:a="http://ns.adobe.com/AdobeSVGViewerExtensions/3.0/"
	 x="0px" y="0px" width="98.32px" height="90.042px" viewBox="0 0 98.32 90.042" style="enable-background:new 0 0 98.32 90.042;"
	 xml:space="preserve">
<style type="text/css">
	.st0{fill:#2E3192;}
</style>
<defs>
</defs>
<g>
	<path class="st0" d="M12.441,69.576l4.672,6.219h0.079h0.036l0,0c0.582,0.617,1.816,2.01,4.019,3.517
		c27.893,21.635,52.423,4.905,59.92-1.392c1.12-0.926,1.93-1.661,2.354-2.124l0,0l4.02-6.219c0.04-0.194,0.04-0.309,0.075-0.502
		H12.402C12.402,69.268,12.441,69.382,12.441,69.576z"/>
	<path class="st0" d="M92.793,19.356l-0.851-0.04c-0.423,0-40.912,0.657-42.688-19.277l0,0L49.18,0L49.1,0.04l0,0
		C47.324,19.973,6.84,19.317,6.412,19.317l-0.926,0.04c0,0,9.387,21.71-5.487,32.142c0,0,8.616,6.294,11.009,11.741h76.337
		c2.358-5.447,10.974-11.741,10.974-11.741C83.521,41.066,92.793,19.356,92.793,19.356z M59.533,35.156
		c-0.349,4.866-0.93,9.039-2.01,12.323c-0.89,2.706-1.97,4.905-3.323,6.492c-2.393,2.741-4.711,2.856-4.945,2.856h-0.04
		c-0.115,0-0.269,0-0.423,0c-2.318,0-4.249-1.12-5.989-3.438c-1.348-1.776-2.472-4.328-3.323-7.532
		c-1.503-5.408-1.812-10.855-1.812-10.934v-0.04h0.771c1.622-0.154,9.85-0.965,10.238-5.483l0.036-0.388l0.119,0.542
		c0.194,1.622,1.353,2.975,3.477,3.94c1.851,0.771,3.98,1.159,5.483,1.389h1.741v0.04c0,0.04,0,0.079,0,0.079l0,0h0.04
		L59.533,35.156z"/>
</g>
</svg>