<!-- Generator: Adobe Illustrator 19.2.0, SVG Export Plug-In  -->
<svg version="1.1"
	 xmlns="http://www.w3.org/2000/svg" xmlns:xlink="http://www.w3.org/1999/xlink" xmlns:a="http://ns.adobe.com/AdobeSVGViewerExtensions/3.0/"
	 x="0px" y="0px" width="166.82px" height="172.021px" viewBox="0 0 166.82 172.021"
	 style="enable-background:new 0 0 166.82 172.021;" xml:space="preserve">
<style type="text/css">
	.st0{opacity:0;fill:#AFAFAF;}
	.st1{opacity:0.0244;fill:#AFAFAF;}
	.st2{opacity:0.0488;fill:#AFAFAF;}
	.st3{opacity:0.0732;fill:#AFAFAF;}
	.st4{opacity:0.0976;fill:#AFAFAF;}
	.st5{opacity:0.122;fill:#AFAFAF;}
	.st6{opacity:0.1463;fill:#AFAFAF;}
	.st7{opacity:0.1707;fill:#AFAFAF;}
	.st8{opacity:0.1951;fill:#AFAFAF;}
	.st9{opacity:0.2195;fill:#AFAFAF;}
	.st10{opacity:0.2439;fill:#AFAFAF;}
	.st11{opacity:0.2683;fill:#AFAFAF;}
	.st12{opacity:0.2927;fill:#AFAFAF;}
	.st13{opacity:0.3171;fill:#AFAFAF;}
	.st14{opacity:0.3415;fill:#AFAFAF;}
	.st15{opacity:0.3659;fill:#AFAFAF;}
	.st16{opacity:0.3902;fill:#AFAFAF;}
	.st17{opacity:0.4146;fill:#AFAFAF;}
	.st18{opacity:0.439;fill:#AFAFAF;}
	.st19{opacity:0.4634;fill:#AFAFAF;}
	.st20{opacity:0.4878;fill:#AFAFAF;}
	.st21{opacity:0.5122;fill:#AFAFAF;}
	.st22{opacity:0.5366;fill:#AFAFAF;}
	.st23{opacity:0.561;fill:#AFAFAF;}
	.st24{opacity:0.5854;fill:#AFAFAF;}
	.st25{opacity:0.6098;fill:#AFAFAF;}
	.st26{opacity:0.6341;fill:#AFAFAF;}
	.st27{opacity:0.6585;fill:#AFAFAF;}
	.st28{opacity:0.6829;fill:#AFAFAF;}
	.st29{opacity:0.7073;fill:#AFAFAF;}
	.st30{opacity:0.7317;fill:#AFAFAF;}
	.st31{opacity:0.7561;fill:#AFAFAF;}
	.st32{opacity:0.7805;fill:#AFAFAF;}
	.st33{opacity:0.8049;fill:#AFAFAF;}
	.st34{opacity:0.8293;fill:#AFAFAF;}
	.st35{opacity:0.8537;fill:#AFAFAF;}
	.st36{opacity:0.878;fill:#AFAFAF;}
	.st37{opacity:0.9024;fill:#AFAFAF;}
	.st38{opacity:0.9268;fill:#AFAFAF;}
	.st39{opacity:0.9512;fill:#AFAFAF;}
	.st40{opacity:0.9756;fill:#AFAFAF;}
	.st41{fill:#AFAFAF;}
	.st42{fill:#00A9FF;}
	.st43{fill:#FFFFFF;}
</style>
<defs>
</defs>
<g>
	<g>
		<path id="XMLID_7_" class="st0" d="M166.82,100.212c0-39.651-32.148-71.81-71.803-71.81c-39.667,0-71.815,32.159-71.815,71.81
			c0,39.656,32.148,71.81,71.815,71.81C134.671,172.021,166.82,139.868,166.82,100.212z"/>
		<path class="st1" d="M166.254,99.519c0-39.651-32.148-71.81-71.803-71.81c-39.666,0-71.815,32.159-71.815,71.81
			c0,39.656,32.148,71.81,71.815,71.81C134.105,171.328,166.254,139.175,166.254,99.519z"/>
		<path class="st2" d="M165.688,98.826c0-39.651-32.148-71.81-71.803-71.81c-39.667,0-71.815,32.159-71.815,71.81
			c0,39.656,32.148,71.81,71.815,71.81C133.54,170.636,165.688,138.482,165.688,98.826z"/>
		<path class="st3" d="M165.122,98.133c0-39.651-32.148-71.81-71.803-71.81c-39.667,0-71.815,32.159-71.815,71.81
			c0,39.656,32.148,71.81,71.815,71.81C132.974,169.943,165.122,137.79,165.122,98.133z"/>
		<path class="st4" d="M164.556,97.441c0-39.651-32.148-71.81-71.803-71.81c-39.666,0-71.815,32.159-71.815,71.81
			c0,39.656,32.148,71.81,71.815,71.81C132.408,169.25,164.556,137.097,164.556,97.441z"/>
		<path class="st5" d="M163.99,96.748c0-39.651-32.148-71.81-71.803-71.81c-39.667,0-71.815,32.159-71.815,71.81
			c0,39.656,32.148,71.81,71.815,71.81C131.842,168.557,163.99,136.404,163.99,96.748z"/>
		<path class="st6" d="M163.424,96.055c0-39.651-32.148-71.81-71.803-71.81c-39.666,0-71.815,32.159-71.815,71.81
			c0,39.656,32.148,71.81,71.815,71.81C131.276,167.865,163.424,135.711,163.424,96.055z"/>
		<path class="st7" d="M162.858,95.362c0-39.651-32.148-71.81-71.803-71.81c-39.667,0-71.815,32.159-71.815,71.81
			c0,39.656,32.148,71.81,71.815,71.81C130.71,167.172,162.858,135.019,162.858,95.362z"/>
		<path class="st8" d="M162.293,94.67c0-39.651-32.148-71.81-71.803-71.81c-39.667,0-71.815,32.159-71.815,71.81
			c0,39.656,32.148,71.81,71.815,71.81C130.144,166.479,162.293,134.326,162.293,94.67z"/>
		<path class="st9" d="M161.727,93.977c0-39.651-32.148-71.81-71.803-71.81c-39.666,0-71.815,32.159-71.815,71.81
			c0,39.656,32.148,71.81,71.815,71.81C129.578,165.787,161.727,133.633,161.727,93.977z"/>
		<path class="st10" d="M161.161,93.284c0-39.651-32.148-71.81-71.803-71.81c-39.667,0-71.815,32.159-71.815,71.81
			c0,39.656,32.148,71.81,71.815,71.81C129.012,165.094,161.161,132.94,161.161,93.284z"/>
		<path class="st11" d="M160.595,92.592c0-39.651-32.148-71.81-71.803-71.81c-39.667,0-71.815,32.159-71.815,71.81
			c0,39.656,32.148,71.81,71.815,71.81C128.447,164.401,160.595,132.248,160.595,92.592z"/>
		<path class="st12" d="M160.029,91.899c0-39.651-32.148-71.81-71.803-71.81c-39.666,0-71.815,32.159-71.815,71.81
			c0,39.656,32.148,71.81,71.815,71.81C127.881,163.708,160.029,131.555,160.029,91.899z"/>
		<path class="st13" d="M159.463,91.206c0-39.651-32.148-71.81-71.803-71.81c-39.667,0-71.815,32.159-71.815,71.81
			c0,39.656,32.148,71.81,71.815,71.81C127.315,163.016,159.463,130.862,159.463,91.206z"/>
		<path class="st14" d="M158.897,90.513c0-39.651-32.148-71.81-71.803-71.81c-39.667,0-71.815,32.159-71.815,71.81
			c0,39.656,32.148,71.81,71.815,71.81C126.749,162.323,158.897,130.17,158.897,90.513z"/>
		<path class="st15" d="M158.331,89.821c0-39.651-32.148-71.81-71.803-71.81c-39.666,0-71.815,32.159-71.815,71.81
			c0,39.656,32.148,71.81,71.815,71.81C126.183,161.63,158.331,129.477,158.331,89.821z"/>
		<path class="st16" d="M157.765,89.128c0-39.651-32.148-71.81-71.803-71.81c-39.667,0-71.815,32.159-71.815,71.81
			c0,39.656,32.148,71.81,71.815,71.81C125.617,160.938,157.765,128.784,157.765,89.128z"/>
		<path class="st17" d="M157.2,88.435c0-39.651-32.148-71.81-71.803-71.81c-39.666,0-71.815,32.159-71.815,71.81
			c0,39.656,32.148,71.81,71.815,71.81C125.051,160.245,157.2,128.091,157.2,88.435z"/>
		<path class="st18" d="M156.634,87.742c0-39.651-32.148-71.81-71.803-71.81c-39.667,0-71.815,32.159-71.815,71.81
			c0,39.656,32.148,71.81,71.815,71.81C124.485,159.552,156.634,127.399,156.634,87.742z"/>
		<path class="st19" d="M156.068,87.05c0-39.651-32.148-71.81-71.803-71.81c-39.667,0-71.815,32.159-71.815,71.81
			c0,39.656,32.148,71.81,71.815,71.81C123.919,158.859,156.068,126.706,156.068,87.05z"/>
		<path class="st20" d="M155.502,86.357c0-39.651-32.148-71.81-71.803-71.81c-39.666,0-71.815,32.159-71.815,71.81
			c0,39.656,32.148,71.81,71.815,71.81C123.354,158.167,155.502,126.013,155.502,86.357z"/>
		<path class="st21" d="M154.936,85.664c0-39.651-32.148-71.81-71.803-71.81c-39.667,0-71.815,32.159-71.815,71.81
			c0,39.656,32.148,71.81,71.815,71.81C122.788,157.474,154.936,125.32,154.936,85.664z"/>
		<path class="st22" d="M154.37,84.972c0-39.651-32.148-71.81-71.803-71.81c-39.667,0-71.815,32.159-71.815,71.81
			c0,39.656,32.148,71.81,71.815,71.81C122.222,156.781,154.37,124.628,154.37,84.972z"/>
		<path class="st23" d="M153.804,84.279c0-39.651-32.148-71.81-71.803-71.81c-39.666,0-71.815,32.159-71.815,71.81
			c0,39.656,32.148,71.81,71.815,71.81C121.656,156.088,153.804,123.935,153.804,84.279z"/>
		<path class="st24" d="M153.238,83.586c0-39.651-32.148-71.81-71.803-71.81c-39.667,0-71.815,32.159-71.815,71.81
			c0,39.656,32.148,71.81,71.815,71.81C121.09,155.396,153.238,123.242,153.238,83.586z"/>
		<path class="st25" d="M152.672,82.893c0-39.651-32.148-71.81-71.803-71.81c-39.667,0-71.815,32.159-71.815,71.81
			c0,39.656,32.148,71.81,71.815,71.81C120.524,154.703,152.672,122.55,152.672,82.893z"/>
		<path class="st26" d="M152.107,82.201c0-39.651-32.148-71.81-71.803-71.81c-39.666,0-71.815,32.159-71.815,71.81
			c0,39.656,32.148,71.81,71.815,71.81C119.958,154.01,152.107,121.857,152.107,82.201z"/>
		<path class="st27" d="M151.541,81.508c0-39.651-32.148-71.81-71.803-71.81c-39.667,0-71.815,32.159-71.815,71.81
			c0,39.656,32.148,71.81,71.815,71.81C119.392,153.318,151.541,121.164,151.541,81.508z"/>
		<path class="st28" d="M150.975,80.815c0-39.651-32.148-71.81-71.803-71.81c-39.666,0-71.815,32.159-71.815,71.81
			c0,39.656,32.148,71.81,71.815,71.81C118.826,152.625,150.975,120.471,150.975,80.815z"/>
		<path class="st29" d="M150.409,80.122c0-39.651-32.148-71.81-71.803-71.81c-39.667,0-71.815,32.159-71.815,71.81
			c0,39.656,32.148,71.81,71.815,71.81C118.261,151.932,150.409,119.779,150.409,80.122z"/>
		<path class="st30" d="M149.843,79.43c0-39.651-32.148-71.81-71.803-71.81c-39.667,0-71.815,32.159-71.815,71.81
			c0,39.656,32.148,71.81,71.815,71.81C117.695,151.239,149.843,119.086,149.843,79.43z"/>
		<path class="st31" d="M149.277,78.737c0-39.651-32.148-71.81-71.803-71.81c-39.666,0-71.815,32.159-71.815,71.81
			c0,39.656,32.148,71.81,71.815,71.81C117.129,150.547,149.277,118.393,149.277,78.737z"/>
		<path class="st32" d="M148.711,78.044c0-39.651-32.148-71.81-71.803-71.81c-39.667,0-71.815,32.159-71.815,71.81
			c0,39.656,32.148,71.81,71.815,71.81C116.563,149.854,148.711,117.7,148.711,78.044z"/>
		<path class="st33" d="M148.145,77.352c0-39.651-32.148-71.81-71.803-71.81c-39.667,0-71.815,32.159-71.815,71.81
			c0,39.656,32.148,71.81,71.815,71.81C115.997,149.161,148.145,117.008,148.145,77.352z"/>
		<path class="st34" d="M147.579,76.659c0-39.651-32.148-71.81-71.803-71.81c-39.666,0-71.815,32.159-71.815,71.81
			c0,39.656,32.148,71.81,71.815,71.81C115.431,148.468,147.579,116.315,147.579,76.659z"/>
		<path class="st35" d="M147.014,75.966c0-39.651-32.148-71.81-71.803-71.81c-39.667,0-71.815,32.159-71.815,71.81
			c0,39.656,32.148,71.81,71.815,71.81C114.865,147.776,147.014,115.622,147.014,75.966z"/>
		<path class="st36" d="M146.448,75.273c0-39.651-32.148-71.81-71.803-71.81c-39.667,0-71.815,32.159-71.815,71.81
			c0,39.656,32.148,71.81,71.815,71.81C114.299,147.083,146.448,114.93,146.448,75.273z"/>
		<path class="st37" d="M145.882,74.581c0-39.651-32.148-71.81-71.803-71.81c-39.666,0-71.815,32.159-71.815,71.81
			c0,39.656,32.148,71.81,71.815,71.81C113.733,146.39,145.882,114.237,145.882,74.581z"/>
		<path class="st38" d="M145.316,73.888c0-39.651-32.148-71.81-71.803-71.81c-39.667,0-71.815,32.159-71.815,71.81
			c0,39.656,32.148,71.81,71.815,71.81C113.168,145.698,145.316,113.544,145.316,73.888z"/>
		<path class="st39" d="M144.75,73.195c0-39.651-32.148-71.81-71.803-71.81c-39.666,0-71.815,32.159-71.815,71.81
			c0,39.656,32.148,71.81,71.815,71.81C112.602,145.005,144.75,112.851,144.75,73.195z"/>
		<path class="st40" d="M144.184,72.502c0-39.651-32.148-71.81-71.803-71.81c-39.667,0-71.815,32.159-71.815,71.81
			c0,39.656,32.148,71.81,71.815,71.81C112.036,144.312,144.184,112.159,144.184,72.502z"/>
		<path id="XMLID_6_" class="st41" d="M143.618,71.81C143.618,32.159,111.47,0,71.815,0C32.148,0,0,32.159,0,71.81
			c0,39.656,32.148,71.81,71.815,71.81C111.47,143.619,143.618,111.466,143.618,71.81z"/>
	</g>
	<g>
		<path id="XMLID_2_" class="st42" d="M143.618,71.81C143.618,32.159,111.47,0,71.815,0C32.148,0,0,32.159,0,71.81
			c0,39.656,32.148,71.81,71.815,71.81C111.47,143.619,143.618,111.466,143.618,71.81z"/>
		<path id="XMLID_1_" class="st43" d="M113.479,50.263c-2.875,1.166-5.955,1.962-9.164,2.341c3.402-2,6.052-5.108,7.437-8.826
			c0.087-0.233-0.17-0.446-0.388-0.325c-3.206,1.787-6.725,3.096-10.461,3.819c-3.175-3.337-7.714-5.425-12.741-5.425
			c-9.626,0-17.447,7.694-17.447,17.177c0,1.348,0.157,2.656,0.45,3.916c-14.454-0.718-27.275-7.514-35.881-17.843
			c-0.043-0.052-0.126-0.045-0.16,0.013c-1.447,2.51-2.291,5.422-2.291,8.518c0,5.821,2.951,10.977,7.46,14.085
			c0.088,0.061,0.042,0.201-0.065,0.195c-2.665-0.139-5.177-0.872-7.391-2.055c-0.063-0.034-0.137,0.006-0.133,0.077
			c0.043,0.755,0.289,4.121,1.178,6.286c2.201,5.36,6.94,9.459,12.821,10.624c-1.47,0.383-3.02,0.608-4.608,0.608
			c-1.061,0-2.104-0.105-3.13-0.292c-0.073-0.013-0.134,0.057-0.11,0.127c2.251,6.651,8.512,11.514,15.956,11.763
			c0.1,0.003,0.143,0.128,0.063,0.188c-5.939,4.506-13.357,7.179-21.443,7.179c-1.412,0-2.783-0.079-4.155-0.235
			c7.723,4.871,16.896,7.714,26.747,7.714c13.577,0,24.55-4.682,32.694-11.802c8.218-7.185,13.553-16.854,15.774-26.702
			c0.783-3.464,1.194-6.959,1.194-10.37c0-0.739-0.019-1.484-0.057-2.22c3.157-2.246,5.927-5.003,8.172-8.134
			C113.959,50.444,113.729,50.161,113.479,50.263z"/>
	</g>
</g>
</svg>