<!-- Generator: Adobe Illustrator 19.2.0, SVG Export Plug-In  -->
<svg version="1.1"
	 xmlns="http://www.w3.org/2000/svg" xmlns:xlink="http://www.w3.org/1999/xlink" xmlns:a="http://ns.adobe.com/AdobeSVGViewerExtensions/3.0/"
	 x="0px" y="0px" width="166.817px" height="172.02px" viewBox="0 0 166.817 172.02"
	 style="enable-background:new 0 0 166.817 172.02;" xml:space="preserve">
<style type="text/css">
	.st0{opacity:0;fill:#AFAFAF;}
	.st1{opacity:0.0244;fill:#AFAFAF;}
	.st2{opacity:0.0488;fill:#AFAFAF;}
	.st3{opacity:0.0732;fill:#AFAFAF;}
	.st4{opacity:0.0976;fill:#AFAFAF;}
	.st5{opacity:0.122;fill:#AFAFAF;}
	.st6{opacity:0.1463;fill:#AFAFAF;}
	.st7{opacity:0.1707;fill:#AFAFAF;}
	.st8{opacity:0.1951;fill:#AFAFAF;}
	.st9{opacity:0.2195;fill:#AFAFAF;}
	.st10{opacity:0.2439;fill:#AFAFAF;}
	.st11{opacity:0.2683;fill:#AFAFAF;}
	.st12{opacity:0.2927;fill:#AFAFAF;}
	.st13{opacity:0.3171;fill:#AFAFAF;}
	.st14{opacity:0.3415;fill:#AFAFAF;}
	.st15{opacity:0.3659;fill:#AFAFAF;}
	.st16{opacity:0.3902;fill:#AFAFAF;}
	.st17{opacity:0.4146;fill:#AFAFAF;}
	.st18{opacity:0.439;fill:#AFAFAF;}
	.st19{opacity:0.4634;fill:#AFAFAF;}
	.st20{opacity:0.4878;fill:#AFAFAF;}
	.st21{opacity:0.5122;fill:#AFAFAF;}
	.st22{opacity:0.5366;fill:#AFAFAF;}
	.st23{opacity:0.561;fill:#AFAFAF;}
	.st24{opacity:0.5854;fill:#AFAFAF;}
	.st25{opacity:0.6098;fill:#AFAFAF;}
	.st26{opacity:0.6341;fill:#AFAFAF;}
	.st27{opacity:0.6585;fill:#AFAFAF;}
	.st28{opacity:0.6829;fill:#AFAFAF;}
	.st29{opacity:0.7073;fill:#AFAFAF;}
	.st30{opacity:0.7317;fill:#AFAFAF;}
	.st31{opacity:0.7561;fill:#AFAFAF;}
	.st32{opacity:0.7805;fill:#AFAFAF;}
	.st33{opacity:0.8049;fill:#AFAFAF;}
	.st34{opacity:0.8293;fill:#AFAFAF;}
	.st35{opacity:0.8537;fill:#AFAFAF;}
	.st36{opacity:0.878;fill:#AFAFAF;}
	.st37{opacity:0.9024;fill:#AFAFAF;}
	.st38{opacity:0.9268;fill:#AFAFAF;}
	.st39{opacity:0.9512;fill:#AFAFAF;}
	.st40{opacity:0.9756;fill:#AFAFAF;}
	.st41{fill:#AFAFAF;}
	.st42{fill:#D40C18;}
	.st43{fill:#FFFFFF;}
	.st44{fill:#DB0C0B;}
</style>
<defs>
</defs>
<g>
	<g>
		<circle id="XMLID_6_" class="st0" cx="95.01" cy="100.208" r="71.808"/>
		<circle class="st1" cx="94.444" cy="99.516" r="71.808"/>
		<circle class="st2" cx="93.878" cy="98.823" r="71.808"/>
		<circle class="st3" cx="93.313" cy="98.13" r="71.808"/>
		<circle class="st4" cx="92.747" cy="97.437" r="71.808"/>
		<circle class="st5" cx="92.181" cy="96.745" r="71.808"/>
		<circle class="st6" cx="91.615" cy="96.052" r="71.808"/>
		<circle class="st7" cx="91.049" cy="95.359" r="71.808"/>
		<circle class="st8" cx="90.483" cy="94.666" r="71.808"/>
		<circle class="st9" cx="89.917" cy="93.974" r="71.808"/>
		<circle class="st10" cx="89.351" cy="93.281" r="71.808"/>
		<circle class="st11" cx="88.785" cy="92.588" r="71.808"/>
		<circle class="st12" cx="88.22" cy="91.896" r="71.808"/>
		<circle class="st13" cx="87.654" cy="91.203" r="71.808"/>
		<circle class="st14" cx="87.088" cy="90.51" r="71.808"/>
		<circle class="st15" cx="86.522" cy="89.817" r="71.808"/>
		<circle class="st16" cx="85.956" cy="89.125" r="71.808"/>
		<circle class="st17" cx="85.39" cy="88.432" r="71.808"/>
		<circle class="st18" cx="84.824" cy="87.739" r="71.808"/>
		<circle class="st19" cx="84.258" cy="87.046" r="71.808"/>
		<circle class="st20" cx="83.692" cy="86.354" r="71.808"/>
		<circle class="st21" cx="83.127" cy="85.661" r="71.808"/>
		<circle class="st22" cx="82.561" cy="84.968" r="71.808"/>
		<circle class="st23" cx="81.995" cy="84.276" r="71.808"/>
		<circle class="st24" cx="81.429" cy="83.583" r="71.808"/>
		<circle class="st25" cx="80.863" cy="82.89" r="71.808"/>
		<circle class="st26" cx="80.297" cy="82.197" r="71.808"/>
		<circle class="st27" cx="79.731" cy="81.505" r="71.808"/>
		<circle class="st28" cx="79.165" cy="80.812" r="71.808"/>
		<circle class="st29" cx="78.599" cy="80.119" r="71.808"/>
		<circle class="st30" cx="78.034" cy="79.427" r="71.808"/>
		<circle class="st31" cx="77.468" cy="78.734" r="71.808"/>
		<circle class="st32" cx="76.902" cy="78.041" r="71.808"/>
		<circle class="st33" cx="76.336" cy="77.348" r="71.808"/>
		<circle class="st34" cx="75.77" cy="76.656" r="71.808"/>
		<circle class="st35" cx="75.204" cy="75.963" r="71.808"/>
		<circle class="st36" cx="74.638" cy="75.27" r="71.808"/>
		<circle class="st37" cx="74.072" cy="74.577" r="71.808"/>
		<circle class="st38" cx="73.506" cy="73.885" r="71.808"/>
		<circle class="st39" cx="72.941" cy="73.192" r="71.808"/>
		<circle class="st40" cx="72.375" cy="72.499" r="71.808"/>
		<circle id="XMLID_5_" class="st41" cx="71.809" cy="71.807" r="71.808"/>
	</g>
	<g>
		<circle id="XMLID_2_" class="st42" cx="71.809" cy="71.807" r="71.808"/>
		<path class="st43" d="M90.163,98.313H53.458c-9.821,0-17.782-7.961-17.782-17.782V63.097c0-9.82,7.961-17.782,17.782-17.782
			h36.705c9.821,0,17.782,7.961,17.782,17.782v17.434C107.944,90.352,99.983,98.313,90.163,98.313z"/>
		<path class="st44" d="M86.496,71.974L62.362,85.012c-0.806,0.435-1.785-0.148-1.785-1.064l-0.01-26.179
			c0-0.918,0.982-1.502,1.788-1.063L86.5,69.847C87.343,70.306,87.341,71.518,86.496,71.974z"/>
	</g>
</g>
</svg>