<!-- Generator: Adobe Illustrator 19.2.0, SVG Export Plug-In  -->
<svg version="1.1"
	 xmlns="http://www.w3.org/2000/svg" xmlns:xlink="http://www.w3.org/1999/xlink" xmlns:a="http://ns.adobe.com/AdobeSVGViewerExtensions/3.0/"
	 x="0px" y="0px" width="166.997px" height="172.212px" viewBox="0 0 166.997 172.212"
	 style="enable-background:new 0 0 166.997 172.212;" xml:space="preserve">
<style type="text/css">
	.st0{opacity:0;fill:#AFAFAF;}
	.st1{opacity:0.0244;fill:#AFAFAF;}
	.st2{opacity:0.0488;fill:#AFAFAF;}
	.st3{opacity:0.0732;fill:#AFAFAF;}
	.st4{opacity:0.0976;fill:#AFAFAF;}
	.st5{opacity:0.122;fill:#AFAFAF;}
	.st6{opacity:0.1463;fill:#AFAFAF;}
	.st7{opacity:0.1707;fill:#AFAFAF;}
	.st8{opacity:0.1951;fill:#AFAFAF;}
	.st9{opacity:0.2195;fill:#AFAFAF;}
	.st10{opacity:0.2439;fill:#AFAFAF;}
	.st11{opacity:0.2683;fill:#AFAFAF;}
	.st12{opacity:0.2927;fill:#AFAFAF;}
	.st13{opacity:0.3171;fill:#AFAFAF;}
	.st14{opacity:0.3415;fill:#AFAFAF;}
	.st15{opacity:0.3659;fill:#AFAFAF;}
	.st16{opacity:0.3902;fill:#AFAFAF;}
	.st17{opacity:0.4146;fill:#AFAFAF;}
	.st18{opacity:0.439;fill:#AFAFAF;}
	.st19{opacity:0.4634;fill:#AFAFAF;}
	.st20{opacity:0.4878;fill:#AFAFAF;}
	.st21{opacity:0.5122;fill:#AFAFAF;}
	.st22{opacity:0.5366;fill:#AFAFAF;}
	.st23{opacity:0.561;fill:#AFAFAF;}
	.st24{opacity:0.5854;fill:#AFAFAF;}
	.st25{opacity:0.6098;fill:#AFAFAF;}
	.st26{opacity:0.6341;fill:#AFAFAF;}
	.st27{opacity:0.6585;fill:#AFAFAF;}
	.st28{opacity:0.6829;fill:#AFAFAF;}
	.st29{opacity:0.7073;fill:#AFAFAF;}
	.st30{opacity:0.7317;fill:#AFAFAF;}
	.st31{opacity:0.7561;fill:#AFAFAF;}
	.st32{opacity:0.7805;fill:#AFAFAF;}
	.st33{opacity:0.8049;fill:#AFAFAF;}
	.st34{opacity:0.8293;fill:#AFAFAF;}
	.st35{opacity:0.8537;fill:#AFAFAF;}
	.st36{opacity:0.878;fill:#AFAFAF;}
	.st37{opacity:0.9024;fill:#AFAFAF;}
	.st38{opacity:0.9268;fill:#AFAFAF;}
	.st39{opacity:0.9512;fill:#AFAFAF;}
	.st40{opacity:0.9756;fill:#AFAFAF;}
	.st41{fill:#AFAFAF;}
	.st42{fill:url(#SVGID_1_);}
	.st43{fill:none;stroke:#FFFFFF;stroke-miterlimit:10;}
	.st44{fill:#FFFFFF;}
	.st45{fill:url(#SVGID_2_);}
</style>
<defs>
</defs>
<g>
	<g>
		<path class="st0" d="M95.099,28.402c-39.704,0-71.898,32.194-71.898,71.913c0,39.705,32.194,71.897,71.898,71.897
			c39.706,0,71.898-32.192,71.898-71.897C166.997,60.595,134.805,28.402,95.099,28.402z"/>
		<path class="st1" d="M94.533,27.709c-39.704,0-71.898,32.194-71.898,71.913c0,39.705,32.194,71.897,71.898,71.897
			c39.706,0,71.898-32.193,71.898-71.897C166.432,59.903,134.239,27.709,94.533,27.709z"/>
		<path class="st2" d="M93.967,27.016c-39.704,0-71.898,32.194-71.898,71.913c0,39.705,32.194,71.897,71.898,71.897
			c39.706,0,71.898-32.193,71.898-71.897C165.866,59.21,133.673,27.016,93.967,27.016z"/>
		<path class="st3" d="M93.401,26.324c-39.704,0-71.898,32.194-71.898,71.913c0,39.705,32.194,71.897,71.898,71.897
			c39.706,0,71.898-32.193,71.898-71.897C165.3,58.517,133.108,26.324,93.401,26.324z"/>
		<path class="st4" d="M92.836,25.631c-39.704,0-71.898,32.194-71.898,71.913c0,39.705,32.194,71.897,71.898,71.897
			c39.706,0,71.898-32.193,71.898-71.897C164.734,57.824,132.542,25.631,92.836,25.631z"/>
		<path class="st5" d="M92.27,24.938c-39.704,0-71.898,32.194-71.898,71.913c0,39.705,32.194,71.897,71.898,71.897
			c39.706,0,71.898-32.192,71.898-71.897C164.168,57.132,131.976,24.938,92.27,24.938z"/>
		<path class="st6" d="M91.704,24.245c-39.704,0-71.898,32.194-71.898,71.913c0,39.705,32.194,71.897,71.898,71.897
			c39.706,0,71.898-32.193,71.898-71.897C163.602,56.439,131.41,24.245,91.704,24.245z"/>
		<path class="st7" d="M91.138,23.553c-39.704,0-71.898,32.194-71.898,71.913c0,39.705,32.194,71.897,71.898,71.897
			c39.706,0,71.898-32.192,71.898-71.897C163.036,55.746,130.844,23.553,91.138,23.553z"/>
		<path class="st8" d="M90.572,22.86c-39.704,0-71.898,32.194-71.898,71.913c0,39.705,32.194,71.897,71.898,71.897
			c39.706,0,71.898-32.193,71.898-71.897C162.47,55.054,130.278,22.86,90.572,22.86z"/>
		<path class="st9" d="M90.006,22.167c-39.704,0-71.898,32.194-71.898,71.913c0,39.705,32.194,71.897,71.898,71.897
			c39.706,0,71.898-32.192,71.898-71.897C161.905,54.361,129.712,22.167,90.006,22.167z"/>
		<path class="st10" d="M89.44,21.474c-39.704,0-71.898,32.194-71.898,71.913c0,39.705,32.194,71.897,71.898,71.897
			c39.706,0,71.898-32.193,71.898-71.897C161.339,53.668,129.146,21.474,89.44,21.474z"/>
		<path class="st11" d="M88.874,20.782c-39.704,0-71.898,32.194-71.898,71.913c0,39.705,32.194,71.897,71.898,71.897
			c39.706,0,71.898-32.192,71.898-71.897C160.773,52.975,128.58,20.782,88.874,20.782z"/>
		<path class="st12" d="M88.308,20.089c-39.704,0-71.898,32.194-71.898,71.913c0,39.705,32.194,71.897,71.898,71.897
			c39.706,0,71.898-32.193,71.898-71.897C160.207,52.283,128.015,20.089,88.308,20.089z"/>
		<path class="st13" d="M87.743,19.396c-39.704,0-71.898,32.194-71.898,71.913c0,39.705,32.194,71.897,71.898,71.897
			c39.706,0,71.898-32.193,71.898-71.897C159.641,51.59,127.449,19.396,87.743,19.396z"/>
		<path class="st14" d="M87.177,18.704c-39.704,0-71.898,32.194-71.898,71.913c0,39.705,32.194,71.897,71.898,71.897
			c39.706,0,71.898-32.193,71.898-71.897C159.075,50.897,126.883,18.704,87.177,18.704z"/>
		<path class="st15" d="M86.611,18.011c-39.704,0-71.898,32.194-71.898,71.913c0,39.705,32.194,71.897,71.898,71.897
			c39.706,0,71.898-32.193,71.898-71.897C158.509,50.204,126.317,18.011,86.611,18.011z"/>
		<path class="st16" d="M86.045,17.318c-39.704,0-71.898,32.194-71.898,71.913c0,39.705,32.194,71.897,71.898,71.897
			c39.706,0,71.898-32.192,71.898-71.897C157.943,49.512,125.751,17.318,86.045,17.318z"/>
		<path class="st17" d="M85.479,16.625c-39.704,0-71.898,32.194-71.898,71.913c0,39.705,32.194,71.897,71.898,71.897
			c39.706,0,71.898-32.193,71.898-71.897C157.377,48.819,125.185,16.625,85.479,16.625z"/>
		<path class="st18" d="M84.913,15.933c-39.704,0-71.898,32.194-71.898,71.913c0,39.705,32.194,71.897,71.898,71.897
			c39.706,0,71.898-32.192,71.898-71.897C156.812,48.126,124.619,15.933,84.913,15.933z"/>
		<path class="st19" d="M84.347,15.24c-39.704,0-71.898,32.194-71.898,71.913c0,39.705,32.194,71.897,71.898,71.897
			c39.706,0,71.898-32.193,71.898-71.897C156.246,47.434,124.053,15.24,84.347,15.24z"/>
		<path class="st20" d="M83.781,14.547c-39.704,0-71.898,32.194-71.898,71.913c0,39.705,32.194,71.897,71.898,71.897
			c39.706,0,71.898-32.192,71.898-71.897C155.68,46.741,123.487,14.547,83.781,14.547z"/>
		<path class="st21" d="M83.215,13.854c-39.704,0-71.898,32.194-71.898,71.913c0,39.705,32.194,71.897,71.898,71.897
			c39.706,0,71.898-32.193,71.898-71.897C155.114,46.048,122.922,13.854,83.215,13.854z"/>
		<path class="st22" d="M82.65,13.162c-39.704,0-71.898,32.194-71.898,71.913c0,39.705,32.194,71.897,71.898,71.897
			c39.706,0,71.898-32.192,71.898-71.897C154.548,45.355,122.356,13.162,82.65,13.162z"/>
		<path class="st23" d="M82.084,12.469c-39.704,0-71.898,32.194-71.898,71.913c0,39.705,32.194,71.897,71.898,71.897
			c39.706,0,71.898-32.193,71.898-71.897C153.982,44.663,121.79,12.469,82.084,12.469z"/>
		<path class="st24" d="M81.518,11.776C41.814,11.776,9.62,43.97,9.62,83.69c0,39.705,32.194,71.897,71.898,71.897
			c39.706,0,71.898-32.192,71.898-71.897C153.416,43.97,121.224,11.776,81.518,11.776z"/>
		<path class="st25" d="M80.952,11.084c-39.704,0-71.898,32.194-71.898,71.913c0,39.705,32.194,71.897,71.898,71.897
			c39.706,0,71.898-32.193,71.898-71.897C152.85,43.277,120.658,11.084,80.952,11.084z"/>
		<path class="st26" d="M80.386,10.391c-39.704,0-71.898,32.194-71.898,71.913c0,39.705,32.194,71.897,71.898,71.897
			c39.706,0,71.898-32.192,71.898-71.897C152.284,42.585,120.092,10.391,80.386,10.391z"/>
		<path class="st27" d="M79.82,9.698c-39.704,0-71.898,32.194-71.898,71.913c0,39.705,32.194,71.897,71.898,71.897
			c39.706,0,71.898-32.192,71.898-71.897C151.719,41.892,119.526,9.698,79.82,9.698z"/>
		<path class="st28" d="M79.254,9.005c-39.704,0-71.898,32.194-71.898,71.913c0,39.705,32.194,71.897,71.898,71.897
			c39.706,0,71.898-32.193,71.898-71.897C151.153,41.199,118.96,9.005,79.254,9.005z"/>
		<path class="st29" d="M78.688,8.313c-39.704,0-71.898,32.194-71.898,71.913c0,39.705,32.194,71.897,71.898,71.897
			c39.706,0,71.898-32.192,71.898-71.897C150.587,40.506,118.394,8.313,78.688,8.313z"/>
		<path class="st30" d="M78.122,7.62c-39.704,0-71.898,32.194-71.898,71.913c0,39.705,32.194,71.897,71.898,71.897
			c39.706,0,71.898-32.193,71.898-71.897C150.021,39.814,117.828,7.62,78.122,7.62z"/>
		<path class="st31" d="M77.557,6.927c-39.704,0-71.898,32.194-71.898,71.913c0,39.705,32.194,71.897,71.898,71.897
			c39.706,0,71.898-32.192,71.898-71.897C149.455,39.121,117.263,6.927,77.557,6.927z"/>
		<path class="st32" d="M76.991,6.235c-39.704,0-71.898,32.194-71.898,71.913c0,39.705,32.194,71.897,71.898,71.897
			c39.706,0,71.898-32.193,71.898-71.897C148.889,38.428,116.697,6.235,76.991,6.235z"/>
		<path class="st33" d="M76.425,5.542c-39.704,0-71.898,32.194-71.898,71.913c0,39.705,32.194,71.897,71.898,71.897
			c39.706,0,71.898-32.192,71.898-71.897C148.323,37.735,116.131,5.542,76.425,5.542z"/>
		<path class="st34" d="M75.859,4.849c-39.704,0-71.898,32.194-71.898,71.913c0,39.705,32.194,71.897,71.898,71.897
			c39.706,0,71.898-32.193,71.898-71.897C147.757,37.043,115.565,4.849,75.859,4.849z"/>
		<path class="st35" d="M75.293,4.156C35.589,4.156,3.395,36.35,3.395,76.07c0,39.705,32.194,71.897,71.898,71.897
			c39.706,0,71.898-32.192,71.898-71.897C147.191,36.35,114.999,4.156,75.293,4.156z"/>
		<path class="st36" d="M74.727,3.464c-39.704,0-71.898,32.194-71.898,71.913c0,39.705,32.194,71.897,71.898,71.897
			c39.706,0,71.898-32.193,71.898-71.897C146.626,35.657,114.433,3.464,74.727,3.464z"/>
		<path class="st37" d="M74.161,2.771c-39.704,0-71.898,32.194-71.898,71.913c0,39.705,32.194,71.897,71.898,71.897
			c39.706,0,71.898-32.192,71.898-71.897C146.06,34.965,113.867,2.771,74.161,2.771z"/>
		<path class="st38" d="M73.595,2.078c-39.704,0-71.898,32.194-71.898,71.913c0,39.705,32.194,71.897,71.898,71.897
			c39.706,0,71.898-32.192,71.898-71.897C145.494,34.272,113.301,2.078,73.595,2.078z"/>
		<path class="st39" d="M73.029,1.385c-39.704,0-71.898,32.194-71.898,71.913c0,39.705,32.194,71.897,71.898,71.897
			c39.706,0,71.898-32.193,71.898-71.897C144.928,33.579,112.735,1.385,73.029,1.385z"/>
		<path class="st40" d="M72.463,0.693c-39.704,0-71.898,32.194-71.898,71.913c0,39.705,32.194,71.897,71.898,71.897
			c39.706,0,71.898-32.192,71.898-71.897C144.362,32.886,112.17,0.693,72.463,0.693z"/>
		<path class="st41" d="M71.898,0C32.194,0,0,32.194,0,71.913c0,39.705,32.194,71.897,71.898,71.897
			c39.706,0,71.898-32.193,71.898-71.897C143.796,32.194,111.604,0,71.898,0z"/>
	</g>
	<g>
		
			<linearGradient id="SVGID_1_" gradientUnits="userSpaceOnUse" x1="954.9594" y1="-267.3941" x2="1049.3038" y2="-158.8634" gradientTransform="matrix(-1 0 0 -1 1074.0295 -141.2224)">
			<stop  offset="0" style="stop-color:#5D3FD2"/>
			<stop  offset="0.4244" style="stop-color:#B829A9"/>
			<stop  offset="0.5009" style="stop-color:#BE289D"/>
			<stop  offset="0.6383" style="stop-color:#D0257E"/>
			<stop  offset="0.7849" style="stop-color:#E62256"/>
			<stop  offset="0.8147" style="stop-color:#E83156"/>
			<stop  offset="0.8718" style="stop-color:#EE5755"/>
			<stop  offset="0.9495" style="stop-color:#F89554"/>
			<stop  offset="1" style="stop-color:#FFC153"/>
		</linearGradient>
		<path class="st42" d="M71.898,0C32.194,0,0,32.194,0,71.913c0,39.705,32.194,71.897,71.898,71.897
			c39.706,0,71.898-32.193,71.898-71.897C143.796,32.194,111.604,0,71.898,0z"/>
		<g>
			<path class="st43" d="M51.32,106.784L51.32,106.784L51.32,106.784L51.32,106.784z M92.476,33.906L92.476,33.906L92.476,33.906
				L92.476,33.906z"/>
			<g>
				<path class="st44" d="M71.898,97.579c14.158,0,25.677-11.513,25.677-25.666c0-14.161-11.519-25.682-25.677-25.682
					c-14.158,0-25.676,11.521-25.676,25.682C46.221,86.066,57.74,97.579,71.898,97.579z M52.449,71.913
					c0-10.732,8.724-19.463,19.448-19.463s19.449,8.731,19.449,19.463c0,10.724-8.725,19.449-19.449,19.449
					S52.449,82.637,52.449,71.913z"/>
			</g>
			<path class="st44" d="M97.506,114.554H46.291c-9.612,0-17.432-7.82-17.432-17.432V46.689c0-9.612,7.82-17.432,17.432-17.432
				h51.215c9.612,0,17.432,7.82,17.432,17.432v50.433C114.937,106.735,107.117,114.554,97.506,114.554z M46.291,35.618
				c-6.104,0-11.072,4.967-11.072,11.071v50.433c0,6.104,4.967,11.071,11.072,11.071h51.215c6.104,0,11.071-4.967,11.071-11.071
				V46.689c0-6.104-4.967-11.071-11.071-11.071H46.291z"/>
		</g>
		<path class="st44" d="M97.923,43.303c-2.245,0-4.053,1.828-4.053,4.058c0,2.244,1.808,4.048,4.053,4.048
			c2.229,0,4.057-1.804,4.057-4.048C101.98,45.131,100.152,43.303,97.923,43.303z"/>
	</g>
</g>
</svg>